<svg width="423" height="72" viewBox="0 0 423 72" fill="none" xmlns="http://www.w3.org/2000/svg">
<g filter="url(#filter0_d_406_4771)">
<path d="M67.7049 41.4546H70.8209V36.1591H61.8591V35.5256L71.2138 18.8955H76.9494V35.3603H79.6035V36.1591H76.9494V41.4615H79.6035V42.0881H67.7049V41.4546ZM70.8209 35.3534V21.409L62.8931 35.3534H70.8209Z" fill="white"/>
<path d="M99.6367 34.4308L99.7332 42.0813H82.9195V37.9496C82.8933 37.7847 82.9005 37.6162 82.9408 37.4542C82.9811 37.2921 83.0535 37.1398 83.1538 37.0062C83.376 36.7298 83.6471 36.4964 83.9535 36.3176C84.6486 35.7934 85.3788 35.3171 86.1388 34.8922L88.3586 33.6527C89.0893 33.2395 89.7787 32.8126 90.4267 32.3581C91.08 31.9072 91.675 31.3776 92.1984 30.7811C92.7491 30.1548 93.198 29.4461 93.5289 28.6809C93.9087 27.7563 94.1413 26.7781 94.2183 25.7818C94.2872 25.0604 94.2872 24.334 94.2183 23.6126C94.1652 22.9641 93.9848 22.3323 93.6875 21.7534C93.3949 21.2131 92.9675 20.7577 92.4466 20.4312C91.7717 20.0516 91.0147 19.8413 90.2406 19.8184C89.674 19.7971 89.1066 19.8248 88.5447 19.901C88.0408 19.9631 87.5486 20.0976 87.0833 20.3004C86.6975 20.4653 86.3571 20.7204 86.0906 21.0441C85.8528 21.346 85.7262 21.7205 85.7321 22.1046C85.8632 22.0584 86.0001 22.0306 86.1388 22.0219C86.3043 22.0219 86.4697 22.0219 86.6214 22.0219C87.0516 22.0019 87.4815 22.0693 87.8849 22.22C88.2884 22.3707 88.657 22.6015 88.9686 22.8986C89.2802 23.1957 89.5282 23.5528 89.6976 23.9483C89.8671 24.3439 89.9544 24.7697 89.9544 25.1999C89.9544 25.6301 89.8671 26.0559 89.6976 26.4515C89.5282 26.847 89.2802 27.2041 88.9686 27.5012C88.657 27.7983 88.2884 28.0292 87.8849 28.1798C87.4815 28.3305 87.0516 28.3979 86.6214 28.3779C85.9277 28.4015 85.2459 28.1931 84.6842 27.7857C84.1754 27.4028 83.7742 26.8952 83.5192 26.312C83.2602 25.6881 83.1312 25.018 83.1401 24.3426C83.134 23.6374 83.2578 22.9371 83.5054 22.2767C83.9952 21.2849 84.7192 20.427 85.6149 19.777C86.5096 19.1231 87.5201 18.6441 88.593 18.3654C89.7181 18.078 90.8801 17.962 92.0399 18.0211C93.1987 18.0606 94.3427 18.2933 95.4247 18.7097C96.5654 19.1628 97.6038 19.8395 98.4786 20.6998C99.2713 21.4749 99.9057 22.3963 100.347 23.4129C100.749 24.3417 100.938 25.3489 100.898 26.3602C100.863 27.3227 100.552 28.2549 100.002 29.0458C99.3152 30.1273 98.3911 31.0385 97.2998 31.7108C96.1721 32.4024 94.9838 32.9901 93.7495 33.4667C92.481 33.9694 91.1781 34.4377 89.8545 34.844C88.5638 35.2695 87.319 35.8232 86.1388 36.4966H96.8861C97.1372 36.5147 97.3889 36.4715 97.6195 36.3708C97.8501 36.27 98.0527 36.1147 98.2097 35.9182C98.5761 35.4744 98.7868 34.9229 98.8095 34.3482L99.6367 34.4308Z" fill="white"/>
<path d="M116.023 18.8955V19.5221H113.369V41.4546H116.023V42.0812H104.249V41.4546H106.903V19.5221H104.249V18.8955H116.023Z" fill="white"/>
<path d="M135.918 42.0812L122.882 20.6515V41.4546H125.543V42.0812H119.339V41.4546H121.993V19.5221H119.339V18.8955H129.321L139.668 35.5187V19.5221H136.98V18.8955H143.612V19.5221H140.558V42.0812H135.918Z" fill="white"/>
<path d="M168.815 27.2074H168.181C168.163 26.0397 167.98 24.8805 167.636 23.7643C167.366 22.9007 166.933 22.0967 166.361 21.3955C165.864 20.7992 165.233 20.3275 164.52 20.0182C163.832 19.733 163.094 19.5878 162.349 19.5913H161.115V41.386H163.769V42.0746H152.001V41.386H154.656V19.5913H153.394C152.626 19.5885 151.867 19.7542 151.17 20.0767C150.473 20.3991 149.856 20.8705 149.361 21.4574C148.779 22.1651 148.334 22.9756 148.051 23.8469C147.701 24.9321 147.534 26.0676 147.555 27.2074H146.941V18.8889H168.829L168.815 27.2074Z" fill="white"/>
<path d="M180.886 41.3507H183.802C185.842 41.3592 187.826 40.688 189.441 39.4433C190.174 38.8803 190.788 38.1782 191.247 37.3774C191.7 36.6097 191.939 35.7345 191.937 34.8433H192.867V42.0807H172.131V41.3507H174.42V19.6318H172.131V18.9019H191.957V25.4644H191.096C191.128 24.5115 190.925 23.5653 190.503 22.7099C190.118 21.9877 189.565 21.3689 188.89 20.9057C188.178 20.4265 187.379 20.0897 186.539 19.9141C185.609 19.7096 184.658 19.608 183.706 19.6111H180.886V29.8508H182.672C183.204 29.8508 183.73 29.7381 184.216 29.5203C184.706 29.3018 185.154 28.9987 185.539 28.6251C185.939 28.2362 186.252 27.7667 186.456 27.2479C186.683 26.6929 186.795 26.0981 186.787 25.4988H187.614V35.3047H186.718C186.718 33.6451 186.339 32.4676 185.574 31.7583C184.783 31.0385 183.741 30.6577 182.672 30.6979H180.886V41.3507Z" fill="white"/>
<path d="M207.909 42.081H196.19V41.4544H198.81V19.5219H196.19V18.8953H208.233C209.537 18.8823 210.839 18.9698 212.128 19.157C213.138 19.2952 214.117 19.6025 215.024 20.066C215.772 20.4539 216.399 21.0399 216.837 21.7599C217.385 22.8342 217.572 24.0558 217.373 25.2448C217.173 26.4337 216.596 27.5271 215.727 28.3638C214.413 29.3736 212.807 29.9317 211.15 29.9545C212.077 29.9677 213.001 30.0738 213.907 30.2713C214.67 30.4283 215.392 30.7451 216.023 31.2009C216.624 31.644 217.08 32.2551 217.333 32.9568C217.644 33.8658 217.748 34.8329 217.636 35.7871C217.636 36.2278 217.636 36.7167 217.636 37.2469C217.609 37.7538 217.609 38.2619 217.636 38.7688C217.654 39.1832 217.745 39.5912 217.905 39.9738C217.962 40.1227 218.065 40.2497 218.199 40.3363C218.333 40.423 218.491 40.4649 218.65 40.4559C218.796 40.4571 218.942 40.429 219.077 40.3732C219.246 40.2902 219.385 40.1582 219.477 39.9945C219.642 39.7275 219.765 39.4374 219.842 39.1337C219.981 38.6306 220.091 38.1203 220.173 37.605H220.704C220.603 38.4011 220.442 39.1883 220.222 39.9601C220.073 40.5052 219.802 41.0093 219.429 41.4337C219.076 41.8036 218.627 42.0682 218.133 42.1981C217.499 42.3516 216.848 42.4233 216.196 42.4115C215.315 42.433 214.437 42.3216 213.59 42.081C212.902 41.8674 212.31 41.422 211.915 40.8208C211.44 40.0294 211.145 39.1429 211.053 38.2248C210.868 36.7956 210.785 35.355 210.805 33.914C210.856 32.999 210.703 32.0841 210.357 31.2353C210.177 30.9249 209.91 30.6743 209.589 30.515C209.268 30.3557 208.906 30.2949 208.551 30.3401H205.262V41.4406H207.916L207.909 42.081ZM205.255 29.7272H207.778C208.316 29.7446 208.842 29.5741 209.268 29.2452C209.677 28.911 210.001 28.4836 210.212 27.9988C210.462 27.44 210.631 26.8489 210.715 26.2428C210.812 25.5747 210.861 24.9004 210.86 24.2252C210.928 23.0151 210.73 21.8047 210.281 20.6788C209.895 19.9076 209.13 19.5219 207.978 19.5219H205.221L205.255 29.7272Z" fill="white"/>
<path d="M240.613 42.0812L227.577 20.6515V41.4546H230.231V42.0812H224.027V41.4546H226.681V19.5221H224.027V18.8955H234.009L244.357 35.5187V19.5221H241.675V18.8955H248.307V19.5221H245.253V42.0812H240.613Z" fill="white"/>
<path d="M264.086 34.2934H256.593L253.739 41.455H256.393V42.0817H250.023V41.455H252.712L261.929 18.6963H264.652L273.903 41.455H276.543V42.0817H264.273V41.455H266.927L264.086 34.2934ZM256.889 33.5704H263.824L260.378 24.8869L256.889 33.5704Z" fill="white"/>
<path d="M298.645 27.2074H298.011C297.993 26.0397 297.81 24.8805 297.466 23.7643C297.193 22.9019 296.76 22.0984 296.191 21.3955C295.694 20.7976 295.064 20.3257 294.35 20.0182C293.66 19.7323 292.919 19.5871 292.171 19.5913H290.951V41.386H293.599V42.0746H281.831V41.386H284.485V19.5913H283.223C282.455 19.5885 281.696 19.7542 280.999 20.0767C280.303 20.3991 279.685 20.8705 279.191 21.4574C278.608 22.1651 278.164 22.9756 277.881 23.8469C277.531 24.9321 277.363 26.0676 277.384 27.2074H276.757V18.8889H298.645V27.2074Z" fill="white"/>
<path d="M313.735 18.8955V19.5221H311.081V41.4546H313.735V42.0812H301.961V41.4546H304.615V19.5221H301.961V18.8955H313.735Z" fill="white"/>
<path d="M316.182 30.4841C316.171 28.8831 316.495 27.2975 317.134 25.829C317.737 24.4173 318.603 23.1323 319.684 22.0417C320.764 20.9479 322.047 20.0754 323.462 19.4731C324.937 18.8504 326.521 18.5295 328.122 18.5295C329.723 18.5295 331.308 18.8504 332.782 19.4731C334.202 20.0785 335.491 20.9504 336.581 22.0417C337.669 23.1315 338.541 24.4164 339.152 25.829C339.776 27.302 340.097 28.8849 340.097 30.4841C340.097 32.0833 339.776 33.6662 339.152 35.1391C338.544 36.5496 337.672 37.8306 336.581 38.9128C335.487 39.9953 334.198 40.862 332.782 41.4675C331.308 42.0902 329.723 42.4111 328.122 42.4111C326.521 42.4111 324.937 42.0902 323.462 41.4675C320.615 40.2513 318.348 37.9843 317.134 35.1391C316.495 33.6708 316.171 32.0851 316.182 30.4841ZM332.265 29.3892C332.265 27.6952 332.265 26.2078 332.169 24.9339C332.135 23.8593 331.968 22.7931 331.673 21.7593C331.471 21.0085 331.037 20.3407 330.432 19.8519C329.739 19.3959 328.916 19.176 328.088 19.2252C327.249 19.1865 326.422 19.4289 325.737 19.9138C325.117 20.4197 324.665 21.1016 324.441 21.8695C324.123 22.9109 323.944 23.99 323.91 25.0785C323.85 26.3593 323.818 27.8513 323.814 29.5545V31.9371C323.814 33.5071 323.814 34.8981 323.931 36.1101C323.974 37.1525 324.162 38.1838 324.489 39.1744C324.731 39.9202 325.181 40.5818 325.785 41.0819C326.453 41.5647 327.264 41.8075 328.088 41.7705C328.877 41.8096 329.657 41.5948 330.314 41.1576C330.912 40.6865 331.352 40.0454 331.576 39.319C331.893 38.321 332.08 37.2865 332.134 36.2409C332.226 35.0014 332.27 33.553 332.265 31.8958V29.3892Z" fill="white"/>
<path d="M359.199 42.0812L346.17 20.6515V41.4546H348.824V42.0812H342.62V41.4546H345.274V19.5221H342.62V18.8955H352.602L362.949 35.5187V19.5221H360.261V18.8955H366.893V19.5221H363.846V42.0812H359.199Z" fill="white"/>
<path d="M382.707 34.2934H375.179L372.366 41.455H375.013V42.0817H368.65V41.455H371.339L380.556 18.6963H383.272L392.523 41.455H395.115V42.0817H382.845V41.455H385.499L382.707 34.2934ZM375.51 33.5704H382.438L378.991 24.8869L375.51 33.5704Z" fill="white"/>
<path d="M410.164 18.8889V19.6326H407.524V41.3653H410.378C411.385 41.3655 412.385 41.1859 413.329 40.8351C414.251 40.4984 415.106 39.9993 415.852 39.3615C416.571 38.7436 417.161 37.9901 417.589 37.1441C418.03 36.2748 418.266 35.316 418.278 34.3414H418.968V42.0815H398.459V41.3516H401.079V19.6326H398.459V18.9027L410.164 18.8889Z" fill="white"/>
<mask id="mask0_406_4771" style="mask-type:luminance" maskUnits="userSpaceOnUse" x="41" y="0" width="13" height="13">
<path d="M41.1159 6.12868C41.1159 7.34082 41.4757 8.52574 42.1499 9.5336C42.8241 10.5415 43.7823 11.327 44.9034 11.7908C46.0245 12.2547 47.2581 12.3761 48.4483 12.1396C49.6384 11.9031 50.7317 11.3194 51.5897 10.4623C52.4478 9.6052 53.0321 8.51317 53.2688 7.32432C53.5056 6.13547 53.3841 4.9032 52.9197 3.78333C52.4553 2.66346 51.6689 1.70629 50.66 1.03286C49.651 0.359433 48.4648 0 47.2513 0C45.6241 0 44.0635 0.645699 42.9129 1.79505C41.7623 2.9444 41.1159 4.50325 41.1159 6.12868Z" fill="white"/>
</mask>
<g mask="url(#mask0_406_4771)">
<path d="M44.366 -5.42608L35.7021 9L50.144 17.6544L58.8079 3.22828L44.366 -5.42608Z" fill="url(#paint0_linear_406_4771)"/>
</g>
<mask id="mask1_406_4771" style="mask-type:luminance" maskUnits="userSpaceOnUse" x="4" y="13" width="25" height="25">
<path d="M4 37.7836H15.7193C15.7281 36.099 16.0721 34.4329 16.7312 32.8823C17.3902 31.3316 18.3513 29.9273 19.5585 28.7509C20.7657 27.5745 22.1949 26.6495 23.7631 26.0297C25.3313 25.41 27.0072 25.1077 28.6933 25.1406V13.4961C15.0713 13.4961 4 24.2867 4 37.7836Z" fill="white"/>
</mask>
<g mask="url(#mask1_406_4771)">
<path d="M26.4323 6.39735L-3.01416 15.7224L6.24406 44.8937L35.6905 35.5686L26.4323 6.39735Z" fill="url(#paint1_linear_406_4771)"/>
</g>
<mask id="mask2_406_4771" style="mask-type:luminance" maskUnits="userSpaceOnUse" x="28" y="13" width="25" height="25">
<path d="M28.4383 25.1407C35.5802 25.1407 41.6536 30.6496 41.6536 37.7355L52.2147 37.7699C52.2147 24.273 42.0534 13.4824 28.4383 13.4824V25.1407Z" fill="white"/>
</mask>
<g mask="url(#mask2_406_4771)">
<path d="M50.0455 6.65798L21.4337 15.7188L30.6085 44.6274L59.2204 35.5667L50.0455 6.65798Z" fill="url(#paint2_linear_406_4771)"/>
</g>
<mask id="mask3_406_4771" style="mask-type:luminance" maskUnits="userSpaceOnUse" x="4" y="37" width="50" height="26">
<path d="M41.6261 37.7832C41.5502 44.8002 35.7871 50.7912 28.6934 50.7912C25.2563 50.7622 21.9695 49.3798 19.5467 46.9442C17.124 44.5087 15.7611 41.2167 15.7539 37.7832H4.51025C4.51025 51.2801 15.0714 62.4494 28.6934 62.4494C42.3154 62.4494 53.3109 51.2181 53.3868 37.7832H41.6261Z" fill="white"/>
</mask>
<g mask="url(#mask3_406_4771)">
<path d="M4.55054 36.4655L3.84698 62.4375L53.3534 63.7756L54.0569 37.8037L4.55054 36.4655Z" fill="url(#paint3_linear_406_4771)"/>
</g>
<mask id="mask4_406_4771" style="mask-type:luminance" maskUnits="userSpaceOnUse" x="41" y="13" width="13" height="26">
<path d="M41.6259 25.2439V38.3689H53.3866V13.4961C50.2675 13.4961 47.2761 14.7338 45.0705 16.9369C42.865 19.1401 41.6259 22.1282 41.6259 25.2439Z" fill="white"/>
</mask>
<g mask="url(#mask4_406_4771)">
<path d="M53.3866 13.4961H41.6259V38.362H53.3866V13.4961Z" fill="url(#paint4_linear_406_4771)"/>
</g>
<mask id="mask5_406_4771" style="mask-type:luminance" maskUnits="userSpaceOnUse" x="4" y="37" width="12" height="28">
<path d="M4 37.5987V64.0002C10.4939 64.0002 15.7193 60.5021 15.7193 56.1844V37.5918L4 37.5987Z" fill="white"/>
</mask>
<g mask="url(#mask5_406_4771)">
<path d="M15.7607 37.5996H4V64.0011H15.7607V37.5996Z" fill="url(#paint5_linear_406_4771)"/>
</g>
<path d="M71.0276 55.1371L72.4615 55.4952C72.2362 56.5457 71.666 57.4909 70.8415 58.1808C70.0249 58.8133 69.0134 59.142 67.9806 59.1104C66.9869 59.1617 65.9999 58.9224 65.1404 58.4218C64.3837 57.9221 63.8009 57.2003 63.4721 56.3559C63.0851 55.4412 62.8903 54.4568 62.8999 53.4638C62.8759 52.4444 63.0957 51.434 63.541 50.5165C63.9478 49.7097 64.5895 49.0447 65.3816 48.609C66.1848 48.1716 67.0865 47.9465 68.0013 47.9548C68.9869 47.9161 69.9572 48.2069 70.7588 48.7812C71.518 49.3612 72.0615 50.178 72.3029 51.1018L70.9242 51.4323C70.7467 50.7606 70.3634 50.1612 69.8281 49.7177C69.3045 49.3444 68.6716 49.1555 68.0288 49.1806C67.2935 49.1574 66.5696 49.3671 65.9607 49.7797C65.4052 50.1709 64.9916 50.7314 64.7819 51.3773C64.5575 52.0429 64.4434 52.7407 64.4441 53.4431C64.4265 54.2621 64.5621 55.0771 64.8439 55.8464C65.0746 56.4862 65.5173 57.028 66.0986 57.382C66.6498 57.7204 67.2853 57.897 67.9323 57.8916C68.6833 57.926 69.4203 57.6806 70.0004 57.2029C70.6049 56.6655 71.0044 55.9355 71.131 55.1371" fill="white"/>
<path d="M73.1784 55.0128C73.1288 54.4199 73.2113 53.8235 73.4199 53.2663C73.6285 52.7091 73.958 52.2049 74.3848 51.7901C75.0703 51.208 75.9466 50.8991 76.8459 50.9224C77.3362 50.905 77.8247 50.9897 78.2804 51.1711C78.7362 51.3524 79.1491 51.6266 79.4931 51.976C79.8482 52.3724 80.1211 52.8351 80.2962 53.3374C80.4713 53.8397 80.5451 54.3716 80.5134 54.9026C80.5504 55.7185 80.397 56.5318 80.0653 57.2783C79.7696 57.8489 79.3083 58.317 78.7417 58.6211C78.1614 58.9411 77.5087 59.1071 76.8459 59.1032C76.3543 59.1232 75.8639 59.0398 75.4067 58.8583C74.9495 58.6768 74.5355 58.4012 74.1918 58.0496C73.4673 57.2098 73.1032 56.1188 73.1784 55.0128ZM74.5572 55.0128C74.505 55.8221 74.7501 56.6227 75.2466 57.2645C75.4517 57.4997 75.7049 57.6882 75.9891 57.8174C76.2733 57.9466 76.5819 58.0134 76.8942 58.0134C77.2064 58.0134 77.515 57.9466 77.7992 57.8174C78.0834 57.6882 78.3366 57.4997 78.5418 57.2645C79.0299 56.6041 79.2625 55.7897 79.1967 54.9715C79.252 54.1842 79.0193 53.4036 78.5418 52.7748C78.3366 52.5396 78.0834 52.3511 77.7992 52.2219C77.515 52.0927 77.2064 52.0259 76.8942 52.0259C76.5819 52.0259 76.2733 52.0927 75.9891 52.2219C75.7049 52.3511 75.4517 52.5396 75.2466 52.7748C74.7478 53.4154 74.5025 54.2169 74.5572 55.0265" fill="white"/>
<path d="M81.6992 58.9236V51.0941H82.8987V52.2096C83.1652 51.7954 83.536 51.4583 83.974 51.2323C84.412 51.0063 84.9017 50.8993 85.3942 50.9219C85.8392 50.9159 86.2807 51.0026 86.6902 51.1767C87.0473 51.3151 87.3563 51.5544 87.5795 51.8653C87.7882 52.1566 87.9295 52.4906 87.9931 52.8432C88.0547 53.2695 88.0801 53.7003 88.069 54.1309V58.9512H86.7385V54.186C86.7574 53.7763 86.7061 53.3664 86.5868 52.974C86.4794 52.7052 86.2853 52.4799 86.0353 52.3336C85.755 52.1717 85.4352 52.0907 85.1115 52.0994C84.5723 52.0901 84.0489 52.2816 83.6432 52.6366C83.4026 52.9193 83.2237 53.249 83.1181 53.6048C83.0124 53.9605 82.9823 54.3344 83.0296 54.7024V58.9787L81.6992 58.9236Z" fill="white"/>
<path d="M89.1995 56.59L90.5093 56.3834C90.5545 56.8479 90.7736 57.2783 91.1228 57.5885C91.5293 57.891 92.03 58.0398 92.536 58.0085C93.0252 58.052 93.514 57.9202 93.9148 57.6367C94.0513 57.5347 94.1627 57.4029 94.2404 57.2513C94.3181 57.0997 94.36 56.9324 94.3629 56.7621C94.363 56.6231 94.3268 56.4865 94.2579 56.3657C94.189 56.2449 94.0897 56.1442 93.9699 56.0735C93.5318 55.8635 93.0684 55.7108 92.5912 55.619C91.8985 55.4669 91.2203 55.2549 90.5644 54.9855C90.218 54.8313 89.9248 54.5787 89.7212 54.259C89.5177 53.9394 89.413 53.5669 89.4201 53.1882C89.4164 52.8493 89.4995 52.5151 89.6613 52.2173C89.815 51.9233 90.0373 51.6705 90.3094 51.4804C90.5676 51.3039 90.8545 51.1735 91.1573 51.0948C91.5285 50.9845 91.9144 50.931 92.3016 50.9364C92.8529 50.9274 93.4014 51.016 93.9217 51.1981C94.3275 51.3335 94.6847 51.5849 94.9488 51.9212C95.1961 52.2807 95.3544 52.6937 95.4107 53.1262L94.1078 53.3053C94.0686 52.936 93.8853 52.5971 93.5977 52.3619C93.2483 52.1156 92.8249 51.9965 92.3981 52.0244C91.9428 51.9869 91.4872 52.0929 91.0952 52.3274C90.9801 52.4032 90.8845 52.505 90.8162 52.6247C90.7479 52.7444 90.7089 52.8785 90.7023 53.0161C90.7022 53.1832 90.758 53.3455 90.8608 53.4774C90.9972 53.6387 91.1729 53.762 91.371 53.8355C91.5089 53.8837 91.8949 53.9939 92.5429 54.1729C93.2126 54.3349 93.8711 54.5396 94.5145 54.7858C94.8795 54.9283 95.1904 55.1819 95.4032 55.5106C95.616 55.8393 95.7199 56.2265 95.7002 56.6175C95.7018 57.0626 95.5671 57.4975 95.3142 57.8639C95.041 58.2714 94.6521 58.5879 94.1974 58.7729C93.6748 58.9956 93.111 59.1059 92.5429 59.0965C91.7194 59.151 90.9013 58.9279 90.2197 58.463C89.6555 57.9865 89.2913 57.3154 89.1995 56.5831" fill="white"/>
<path d="M102.043 58.9239V57.774C101.777 58.1901 101.408 58.5309 100.972 58.7636C100.536 58.9964 100.048 59.1132 99.5539 59.103C99.1077 59.1066 98.6658 59.015 98.2579 58.8344C97.905 58.6887 97.5979 58.4508 97.3686 58.1458C97.1603 57.8517 97.0191 57.5156 96.955 57.1611C96.8914 56.7535 96.8661 56.3408 96.8791 55.9285V51.0737H98.2027V55.4396C98.1883 55.9002 98.216 56.3612 98.2855 56.8168C98.3563 57.1455 98.5451 57.437 98.8163 57.6362C99.1096 57.8443 99.4631 57.9507 99.8227 57.9392C100.216 57.9389 100.602 57.8318 100.94 57.6293C101.276 57.4445 101.538 57.1505 101.684 56.7961C101.85 56.3043 101.922 55.7858 101.898 55.2674V51.0737H103.228V58.9033L102.043 58.9239Z" fill="white"/>
<path d="M106.234 48.1194H104.904V58.9238H106.234V48.1194Z" fill="white"/>
<path d="M110.811 57.7396L111.004 58.9103C110.673 58.982 110.336 59.0212 109.998 59.0273C109.61 59.0477 109.223 58.9695 108.874 58.8001C108.635 58.6607 108.446 58.4483 108.336 58.1941C108.193 57.6839 108.137 57.153 108.171 56.624V52.1205H107.199V51.0876H108.171V49.1526L109.495 48.3538V51.1082H110.832V52.1411H109.495V56.7204C109.478 56.9659 109.501 57.2124 109.564 57.4504C109.612 57.5563 109.691 57.645 109.791 57.7052C109.931 57.7784 110.088 57.8117 110.246 57.8016C110.442 57.7992 110.638 57.783 110.832 57.7534" fill="white"/>
<path d="M111.735 48.1194H113.066V49.6481H111.735V48.1194ZM111.735 51.0942H113.066V58.9238H111.735V51.0942Z" fill="white"/>
<path d="M122.489 59.5713L123.785 59.7641C123.796 59.9318 123.841 60.0956 123.918 60.245C123.995 60.3943 124.103 60.5261 124.233 60.6317C124.639 60.9055 125.124 61.0363 125.612 61.0036C126.113 61.0352 126.611 60.9049 127.032 60.6317C127.378 60.3806 127.623 60.0142 127.722 59.5988C127.809 59.0363 127.841 58.4667 127.818 57.8979C127.557 58.2215 127.226 58.4819 126.85 58.6596C126.474 58.8373 126.063 58.9276 125.647 58.924C125.166 58.9479 124.687 58.8544 124.251 58.6516C123.815 58.4488 123.435 58.1428 123.144 57.7602C122.547 56.9522 122.237 55.9684 122.262 54.9644C122.253 54.2551 122.391 53.5516 122.669 52.8986C122.906 52.3071 123.314 51.7992 123.841 51.4387C124.379 51.0873 125.011 50.9073 125.654 50.9223C126.096 50.9158 126.534 51.0134 126.931 51.2072C127.329 51.401 127.675 51.6855 127.942 52.0378V51.0944H129.169V57.8635C129.225 58.7429 129.098 59.6243 128.797 60.4527C128.538 60.9686 128.123 61.3901 127.611 61.6578C126.998 61.9703 126.314 62.1219 125.626 62.0985C124.822 62.1376 124.027 61.9179 123.358 61.4719C123.069 61.2516 122.841 60.9617 122.695 60.6292C122.549 60.2968 122.49 59.9327 122.524 59.5713M123.627 54.868C123.558 55.6675 123.775 56.4655 124.24 57.1198C124.428 57.3415 124.662 57.5184 124.927 57.6376C125.192 57.7568 125.48 57.8151 125.771 57.8084C126.062 57.8147 126.351 57.7562 126.617 57.6371C126.883 57.518 127.119 57.3413 127.308 57.1198C127.773 56.4836 127.994 55.7014 127.928 54.9162C127.985 54.1394 127.758 53.3684 127.287 52.7471C127.102 52.5181 126.868 52.3335 126.602 52.2072C126.336 52.0808 126.045 52.0159 125.75 52.0172C125.464 52.0126 125.181 52.0721 124.92 52.1912C124.66 52.3104 124.43 52.4862 124.247 52.7058C123.791 53.3202 123.571 54.0777 123.627 54.8405" fill="white"/>
<path d="M140.737 57.6501C140.35 58.0984 139.883 58.4698 139.358 58.745C138.834 58.9888 138.262 59.1134 137.683 59.11C137.188 59.1323 136.694 59.043 136.238 58.8487C135.782 58.6544 135.376 58.3601 135.05 57.9876C134.536 57.4223 134.253 56.6852 134.257 55.9217C134.256 55.2613 134.485 54.6211 134.905 54.1106C135.434 53.5 136.094 53.0153 136.835 52.6921C136.451 52.2782 136.125 51.815 135.863 51.3149C135.708 50.9996 135.626 50.6537 135.622 50.3026C135.622 49.9838 135.689 49.6685 135.82 49.3777C135.95 49.0869 136.141 48.827 136.38 48.6155C136.906 48.1421 137.597 47.8946 138.304 47.9269C138.636 47.915 138.968 47.9697 139.28 48.088C139.591 48.2063 139.876 48.3856 140.117 48.6155C140.339 48.823 140.515 49.0749 140.634 49.3549C140.753 49.6348 140.812 49.9366 140.806 50.2406C140.806 51.2667 140.117 52.1481 138.738 52.8711L140.675 55.3433C140.91 54.8667 141.084 54.3623 141.192 53.8421L142.571 54.1313C142.388 54.9564 142.063 55.7437 141.613 56.4588C142.087 57.0957 142.656 57.6555 143.301 58.1184L142.412 59.172C141.785 58.7513 141.225 58.2382 140.751 57.6501M139.917 56.6034L137.483 53.5873C136.922 53.8815 136.427 54.2869 136.029 54.7786C135.795 55.0948 135.663 55.4741 135.649 55.8666C135.673 56.3697 135.856 56.8523 136.173 57.2438C136.346 57.4704 136.571 57.6515 136.829 57.7715C137.087 57.8915 137.371 57.9468 137.656 57.9325C138.096 57.9218 138.525 57.7908 138.896 57.5537C139.308 57.3208 139.658 56.9926 139.917 56.5965M138.062 51.9966C138.493 51.7816 138.873 51.479 139.179 51.1083C139.35 50.8566 139.439 50.5584 139.434 50.2544C139.441 50.089 139.413 49.9241 139.352 49.77C139.292 49.6159 139.2 49.4761 139.083 49.3592C138.97 49.2441 138.834 49.1535 138.685 49.0931C138.535 49.0327 138.375 49.0037 138.214 49.008C138.049 49.0027 137.885 49.0304 137.731 49.0895C137.577 49.1487 137.437 49.238 137.318 49.3523C137.202 49.4602 137.109 49.5915 137.048 49.7374C136.986 49.8834 136.956 50.0409 136.959 50.1993C136.963 50.3828 137.005 50.5634 137.083 50.7295C137.19 50.9377 137.322 51.1319 137.476 51.308L138.062 51.9966Z" fill="white"/>
<path d="M148.23 58.9238V48.1194H150.388L152.946 55.7699C153.187 56.4585 153.359 57.0163 153.463 57.3675C153.587 56.9773 153.78 56.3988 154.042 55.6322L156.592 48.1194H158.523V58.9238H157.144V49.8822L154 58.9238H152.732L149.609 49.7239V58.9238H148.23Z" fill="white"/>
<path d="M165.423 57.9596C165.002 58.3295 164.522 58.6274 164.003 58.841C163.536 59.0156 163.041 59.1043 162.542 59.1027C161.824 59.1498 161.114 58.9234 160.556 58.4692C160.33 58.2675 160.151 58.0186 160.032 57.7401C159.913 57.4617 159.857 57.1605 159.867 56.8578C159.864 56.4924 159.955 56.1323 160.129 55.8111C160.296 55.5059 160.532 55.244 160.818 55.0468C161.112 54.8514 161.436 54.7049 161.777 54.6129C162.165 54.5208 162.559 54.4542 162.956 54.4132C163.759 54.3364 164.552 54.1842 165.327 53.9588C165.327 53.7728 165.327 53.6558 165.327 53.6076C165.349 53.401 165.327 53.1921 165.261 52.9949C165.196 52.7977 165.089 52.6168 164.948 52.4644C164.516 52.1371 163.979 51.978 163.438 52.0168C162.955 51.9813 162.473 52.0968 162.059 52.3474C161.702 52.6413 161.458 53.0503 161.37 53.5043L160.067 53.3321C160.149 52.8328 160.35 52.3605 160.653 51.9549C160.963 51.59 161.369 51.3182 161.825 51.1698C162.397 50.9751 162.999 50.8819 163.604 50.8944C164.155 50.8752 164.706 50.9545 165.23 51.1285C165.586 51.2392 165.905 51.4438 166.154 51.7207C166.365 51.9825 166.507 52.2925 166.568 52.6228C166.623 53.029 166.646 53.4388 166.637 53.8486V55.6114C166.617 56.3951 166.644 57.1793 166.719 57.9596C166.779 58.2884 166.893 58.6049 167.057 58.8961H165.679C165.539 58.5914 165.45 58.2656 165.417 57.9321M165.306 54.971C164.603 55.2162 163.875 55.3825 163.135 55.4668C162.74 55.513 162.351 55.6031 161.977 55.7354C161.763 55.8225 161.581 55.9711 161.453 56.1623C161.3 56.3988 161.238 56.6826 161.278 56.9611C161.319 57.2397 161.459 57.4941 161.673 57.6773C162.008 57.9388 162.428 58.0665 162.852 58.0353C163.334 58.0493 163.81 57.9327 164.231 57.6979C164.614 57.4929 164.923 57.1724 165.113 56.7821C165.278 56.3593 165.351 55.9062 165.327 55.453L165.306 54.971Z" fill="white"/>
<path d="M168.312 58.9246V51.095H169.511V52.2863C169.71 51.8634 169.997 51.4877 170.352 51.1845C170.605 51.0139 170.903 50.9227 171.207 50.9229C171.698 50.9296 172.177 51.0778 172.586 51.3498L172.131 52.5824C171.837 52.3991 171.499 52.2991 171.152 52.2932C170.87 52.2878 170.595 52.3803 170.373 52.5549C170.133 52.7354 169.959 52.9893 169.877 53.2779C169.726 53.7805 169.652 54.3027 169.656 54.8273V58.9246H168.312Z" fill="white"/>
<path d="M173 58.9238V48.1194H174.33V54.2825L177.474 51.1011H179.19L176.198 54.0002L179.494 58.9238H177.853L175.268 54.9229L174.33 55.825V58.9238H173Z" fill="white"/>
<path d="M185.546 56.4046L186.925 56.5699C186.747 57.3108 186.321 57.9689 185.719 58.436C185.069 58.9075 184.281 59.1497 183.478 59.1246C182.969 59.1551 182.46 59.0762 181.984 58.8933C181.509 58.7103 181.078 58.4276 180.721 58.0642C180.008 57.2452 179.647 56.1792 179.714 55.0962C179.634 53.9719 179.995 52.8605 180.721 51.9975C181.057 51.6381 181.467 51.3551 181.923 51.1674C182.378 50.9797 182.869 50.8918 183.361 50.9094C183.841 50.8928 184.319 50.9795 184.763 51.1636C185.207 51.3478 185.605 51.6251 185.932 51.9768C186.639 52.8145 186.995 53.8926 186.925 54.986C186.925 55.0618 186.925 55.1789 186.925 55.3372H181.086C181.082 56.0627 181.342 56.7649 181.817 57.3136C182.025 57.5371 182.278 57.714 182.56 57.8327C182.841 57.9513 183.145 58.0091 183.451 58.0022C183.898 58.0174 184.338 57.8815 184.698 57.6166C185.095 57.3058 185.391 56.8838 185.546 56.4046ZM181.183 54.263H185.546C185.53 53.7283 185.355 53.2104 185.043 52.7756C184.845 52.5313 184.593 52.3355 184.308 52.203C184.022 52.0706 183.71 52.005 183.395 52.0112C183.111 52.0057 182.829 52.0571 182.565 52.1624C182.301 52.2677 182.06 52.4246 181.858 52.6241C181.43 53.0642 181.184 53.6495 181.169 54.263" fill="white"/>
<path d="M191.061 57.7393L191.254 58.91C190.926 58.982 190.591 59.0212 190.255 59.027C189.867 59.0474 189.48 58.9692 189.131 58.7998C188.885 58.6657 188.689 58.4554 188.573 58.2007C188.429 57.6905 188.373 57.1596 188.407 56.6306V52.1271H187.435V51.0942H188.407V49.1591L189.731 48.3604V51.1148H191.061V52.1477H189.731V56.727C189.714 56.9725 189.738 57.2189 189.8 57.457C189.848 57.5628 189.927 57.6516 190.027 57.7117C190.166 57.7867 190.324 57.8202 190.482 57.8082C190.676 57.8057 190.87 57.7896 191.061 57.76" fill="white"/>
<path d="M192.019 48.1194H193.35V49.6481H192.019V48.1194ZM192.019 51.0942H193.35V58.9238H192.019V51.0942Z" fill="white"/>
<path d="M194.991 58.9247V51.0952H196.19V52.2107C196.456 51.797 196.825 51.4602 197.262 51.2342C197.699 51.0082 198.187 50.9009 198.679 50.923C199.126 50.9162 199.57 51.003 199.982 51.1778C200.339 51.3162 200.648 51.5555 200.871 51.8664C201.08 52.1577 201.221 52.4917 201.285 52.8443C201.346 53.2706 201.372 53.7014 201.36 54.132V58.9523H200.023V54.187C200.042 53.7774 199.991 53.3675 199.871 52.9751C199.764 52.7063 199.57 52.4809 199.32 52.3347C199.04 52.1728 198.72 52.0918 198.396 52.1005C197.857 52.0912 197.333 52.2827 196.928 52.6377C196.687 52.9204 196.508 53.2501 196.403 53.6059C196.297 53.9616 196.267 54.3355 196.314 54.7035V58.9798L194.991 58.9247Z" fill="white"/>
<path d="M202.781 59.5713L204.07 59.7641C204.081 59.9324 204.127 60.0965 204.206 60.2459C204.284 60.3953 204.393 60.5267 204.525 60.6317C204.93 60.9064 205.415 61.0374 205.903 61.0036C206.404 61.0352 206.902 60.9049 207.324 60.6317C207.67 60.381 207.914 60.0145 208.013 59.5988C208.107 59.0371 208.142 58.467 208.116 57.8979C207.855 58.2215 207.524 58.4819 207.148 58.6596C206.772 58.8373 206.361 58.9276 205.945 58.924C205.464 58.9479 204.985 58.8544 204.549 58.6516C204.113 58.4488 203.733 58.1428 203.442 57.7602C202.842 56.9536 202.532 55.9689 202.56 54.9644C202.552 54.2559 202.688 53.5531 202.96 52.8986C203.203 52.3081 203.612 51.8008 204.139 51.4387C204.677 51.0873 205.309 50.9073 205.952 50.9223C206.394 50.9158 206.832 51.0134 207.229 51.2072C207.627 51.401 207.973 51.6855 208.24 52.0378V51.0944H209.461V57.8635C209.516 58.7429 209.389 59.6243 209.088 60.4527C208.831 60.9675 208.419 61.3889 207.909 61.6578C207.296 61.9703 206.613 62.1219 205.924 62.0985C205.12 62.1376 204.325 61.9179 203.656 61.4719C203.36 61.2563 203.123 60.9684 202.97 60.6356C202.817 60.3029 202.752 59.9364 202.781 59.5713ZM203.884 54.868C203.817 55.6663 204.032 56.4625 204.49 57.1198C204.681 57.34 204.917 57.5166 205.182 57.6376C205.448 57.7587 205.736 57.8213 206.027 57.8213C206.319 57.8213 206.607 57.7587 206.873 57.6376C207.138 57.5166 207.374 57.34 207.565 57.1198C208.027 56.4823 208.247 55.7011 208.185 54.9162C208.242 54.1394 208.014 53.3684 207.544 52.7471C207.359 52.5181 207.125 52.3335 206.859 52.2072C206.593 52.0808 206.301 52.0159 206.007 52.0172C205.72 52.0125 205.435 52.072 205.174 52.1911C204.913 52.3102 204.682 52.4861 204.497 52.7058C204.047 53.3228 203.83 54.0789 203.884 54.8405" fill="white"/>
<path d="M217.761 57.7395L217.947 58.8826C217.618 58.9546 217.283 58.9939 216.947 58.9997C216.559 59.0207 216.173 58.9425 215.823 58.7724C215.576 58.6404 215.379 58.4295 215.265 58.1733C215.121 57.6631 215.065 57.1322 215.1 56.6033V52.0997H214.128V51.0668H215.1V49.1318L216.423 48.333V51.0875H217.754V52.1204H216.43V56.6997C216.414 56.9451 216.437 57.1916 216.499 57.4296C216.548 57.5355 216.627 57.6243 216.727 57.6844C216.866 57.7586 217.024 57.792 217.182 57.7808C217.375 57.7783 217.569 57.7622 217.761 57.7326" fill="white"/>
<path d="M218.188 55.013C218.14 54.4196 218.224 53.823 218.433 53.2658C218.643 52.7087 218.974 52.2048 219.401 51.7902C220.086 51.2071 220.963 50.898 221.862 50.9226C222.352 50.9044 222.839 50.9888 223.294 51.1703C223.749 51.3517 224.161 51.6262 224.503 51.9762C224.859 52.372 225.133 52.8344 225.309 53.3368C225.486 53.8391 225.561 54.3714 225.53 54.9028C225.568 55.7195 225.412 56.5337 225.075 57.2785C224.782 57.8486 224.323 58.3167 223.758 58.6213C223.178 58.9405 222.525 59.1064 221.862 59.1033C221.37 59.1235 220.878 59.0402 220.42 58.8587C219.962 58.6772 219.546 58.4016 219.201 58.0498C218.477 57.21 218.113 56.119 218.188 55.013ZM219.567 55.013C219.515 55.8223 219.76 56.6229 220.256 57.2647C220.461 57.4999 220.714 57.6884 220.999 57.8176C221.283 57.9468 221.591 58.0136 221.904 58.0136C222.216 58.0136 222.525 57.9468 222.809 57.8176C223.093 57.6884 223.346 57.4999 223.551 57.2647C224.036 56.6027 224.268 55.7895 224.206 54.9716C224.255 54.1796 224.01 53.3974 223.517 52.775C223.312 52.5399 223.06 52.3515 222.776 52.2224C222.492 52.0933 222.184 52.0264 221.873 52.0264C221.561 52.0264 221.253 52.0933 220.969 52.2224C220.686 52.3515 220.433 52.5399 220.229 52.775C219.73 53.4156 219.484 54.217 219.539 55.0267" fill="white"/>
<path d="M233.802 58.9238L229.618 48.1194H231.162L233.975 55.9696C234.202 56.5962 234.388 57.1885 234.54 57.7394C234.705 57.1471 234.905 56.5549 235.126 55.9696L238.049 48.1194H239.51L235.271 58.9238H233.802Z" fill="white"/>
<path d="M239.965 48.1194H241.296V49.6481H239.965V48.1194ZM239.965 51.0942H241.296V58.9238H239.965V51.0942Z" fill="white"/>
<path d="M248.279 56.4041L249.658 56.5694C249.482 57.3098 249.059 57.9681 248.458 58.4355C247.806 58.907 247.016 59.1492 246.211 59.1241C245.708 59.1497 245.205 59.0683 244.736 58.8855C244.266 58.7028 243.841 58.4226 243.488 58.0637C242.775 57.2448 242.414 56.1787 242.481 55.0957C242.412 53.9821 242.775 52.8847 243.495 52.0314C243.832 51.6712 244.243 51.3876 244.7 51.1999C245.157 51.0122 245.649 50.9247 246.142 50.9434C246.621 50.9259 247.099 51.0122 247.541 51.1965C247.984 51.3807 248.381 51.6585 248.707 52.0107C249.415 52.8478 249.773 53.9257 249.706 55.02C249.706 55.0957 249.706 55.2128 249.706 55.3712H243.867C243.863 56.0966 244.123 56.7989 244.598 57.3475C244.806 57.571 245.059 57.7479 245.341 57.8666C245.623 57.9853 245.926 58.0431 246.232 58.0361C246.679 58.0513 247.119 57.9154 247.479 57.6505C247.866 57.3255 248.145 56.8909 248.279 56.4041ZM243.922 54.2625H248.293C248.279 53.7285 248.106 53.2107 247.797 52.7751C247.598 52.5308 247.347 52.335 247.061 52.2025C246.776 52.0701 246.464 52.0045 246.149 52.0107C245.865 52.0037 245.582 52.0544 245.317 52.1597C245.053 52.2651 244.813 52.4229 244.612 52.6236C244.178 53.0602 243.931 53.6477 243.922 54.2625Z" fill="white"/>
<path d="M253.863 57.7393L254.056 58.91C253.725 58.9817 253.388 59.0209 253.05 59.027C252.662 59.0474 252.275 58.9692 251.926 58.7998C251.68 58.6657 251.484 58.4554 251.368 58.2007C251.224 57.6905 251.168 57.1596 251.202 56.6306V52.1271H250.23V51.0942H251.202V49.1591L252.526 48.3604V51.1148H253.863V52.1477H252.526V56.727C252.513 56.9724 252.536 57.2183 252.595 57.457C252.643 57.5628 252.722 57.6516 252.822 57.7117C252.962 57.7849 253.119 57.8183 253.277 57.8082C253.473 57.8057 253.669 57.7896 253.863 57.76" fill="white"/>
<path d="M254.787 58.9236V51.0941H255.979V52.2096C256.246 51.7954 256.617 51.4583 257.055 51.2323C257.493 51.0063 257.983 50.8993 258.475 50.9219C258.92 50.9159 259.361 51.0026 259.771 51.1767C260.128 51.3151 260.437 51.5544 260.66 51.8653C260.869 52.1566 261.01 52.4906 261.074 52.8432C261.136 53.2695 261.161 53.7003 261.15 54.1309V58.9512H259.819V54.186C259.838 53.7763 259.787 53.3664 259.668 52.974C259.56 52.7052 259.366 52.4799 259.116 52.3336C258.836 52.1717 258.516 52.0907 258.192 52.0994C257.653 52.0901 257.13 52.2816 256.724 52.6366C256.483 52.9193 256.305 53.249 256.199 53.6048C256.093 53.9605 256.063 54.3344 256.11 54.7024V58.9787L254.787 58.9236Z" fill="white"/>
<path d="M267.919 57.9594C267.499 58.3308 267.019 58.6288 266.499 58.8409C266.032 59.0154 265.537 59.1041 265.038 59.1025C264.32 59.1496 263.61 58.9233 263.052 58.469C262.826 58.2673 262.647 58.0184 262.528 57.74C262.409 57.4615 262.353 57.1603 262.363 56.8577C262.36 56.4922 262.45 56.1321 262.625 55.811C262.792 55.5062 263.028 55.2444 263.314 55.0466C263.607 54.8488 263.931 54.7021 264.273 54.6128C264.66 54.5195 265.054 54.4527 265.451 54.4131C266.252 54.3364 267.044 54.1842 267.816 53.9586C267.816 53.7727 267.816 53.6556 267.816 53.6074C267.837 53.4014 267.815 53.1933 267.751 52.9964C267.687 52.7995 267.582 52.6182 267.444 52.4643C267.009 52.1365 266.47 51.9774 265.927 52.0167C265.444 51.9807 264.962 52.0962 264.548 52.3472C264.196 52.6451 263.953 53.0524 263.859 53.5041L262.556 53.3319C262.645 52.8345 262.845 52.3636 263.142 51.9547C263.452 51.5898 263.858 51.3181 264.314 51.1697C264.886 50.975 265.488 50.8818 266.092 50.8942C266.647 50.8757 267.2 50.955 267.726 51.1284C268.079 51.2423 268.395 51.4465 268.643 51.7206C268.854 51.9824 268.996 52.2924 269.057 52.6227C269.116 53.0284 269.139 53.4386 269.126 53.8484V55.6113C269.106 56.3949 269.133 57.1791 269.208 57.9594C269.271 58.2874 269.385 58.6034 269.546 58.896H268.168C268.022 58.5928 267.931 58.2665 267.899 57.9319M267.788 54.9709C267.087 55.2154 266.361 55.3817 265.624 55.4667C265.229 55.5111 264.84 55.6013 264.466 55.7352C264.251 55.82 264.068 55.9692 263.942 56.1621C263.818 56.3503 263.753 56.5708 263.756 56.7957C263.752 56.9631 263.786 57.1291 263.855 57.2816C263.925 57.4342 264.027 57.5693 264.155 57.6771C264.49 57.9387 264.91 58.0663 265.334 58.0352C265.816 58.0471 266.292 57.9306 266.713 57.6978C267.086 57.4995 267.389 57.1919 267.582 56.8163C267.747 56.3936 267.82 55.9405 267.795 55.4873L267.788 54.9709Z" fill="white"/>
<path d="M270.835 58.9244V51.0948H272.021V52.1966C272.267 51.8119 272.603 51.4929 273 51.267C273.423 51.0377 273.898 50.9192 274.379 50.9227C274.898 50.8997 275.413 51.0341 275.854 51.3083C276.224 51.5464 276.501 51.9036 276.64 52.3206C276.889 51.901 277.243 51.5533 277.667 51.3118C278.091 51.0703 278.571 50.9433 279.06 50.9433C279.386 50.9219 279.714 50.9676 280.022 51.0778C280.331 51.188 280.613 51.3602 280.852 51.5838C281.314 52.1393 281.54 52.854 281.479 53.5739V58.9451H280.128V53.9939C280.146 53.6088 280.104 53.2232 280.004 52.8508C279.917 52.6146 279.752 52.4154 279.535 52.2862C279.295 52.1395 279.017 52.0654 278.736 52.0727C278.481 52.0638 278.227 52.1075 277.99 52.2011C277.752 52.2947 277.537 52.4362 277.357 52.6167C276.95 53.1096 276.754 53.7432 276.812 54.3795V58.9244H275.482V53.8424C275.514 53.3766 275.4 52.9125 275.158 52.5134C275.031 52.3585 274.867 52.2372 274.682 52.1603C274.497 52.0835 274.296 52.0533 274.096 52.0727C273.729 52.0715 273.369 52.1715 273.055 52.3619C272.735 52.5658 272.492 52.8713 272.366 53.2296C272.198 53.7565 272.123 54.3089 272.145 54.8616V58.9244H270.835Z" fill="white"/>
<path d="M286.594 53.6633C286.504 52.1231 287.024 50.6093 288.042 49.4489C288.522 48.946 289.103 48.5503 289.747 48.288C290.391 48.0257 291.083 47.9027 291.779 47.9271C292.723 47.907 293.655 48.1451 294.474 48.6157C295.271 49.084 295.909 49.7794 296.308 50.6127C296.736 51.5266 296.958 52.5234 296.958 53.5325C296.958 54.5415 296.736 55.5383 296.308 56.4522C295.892 57.28 295.236 57.9638 294.426 58.4147C293.623 58.8627 292.719 59.0996 291.799 59.1034C290.829 59.1233 289.873 58.8678 289.042 58.3665C288.25 57.8874 287.616 57.1888 287.215 56.3558C286.805 55.5151 286.592 54.5917 286.594 53.6564M288.077 53.6564C288.012 54.7795 288.388 55.8837 289.124 56.7345C289.467 57.0913 289.879 57.3752 290.334 57.5691C290.79 57.7631 291.28 57.863 291.775 57.863C292.27 57.863 292.76 57.7631 293.216 57.5691C293.671 57.3752 294.083 57.0913 294.426 56.7345C295.168 55.833 295.54 54.6836 295.467 53.5187C295.484 52.7266 295.331 51.9401 295.019 51.2118C294.747 50.5854 294.293 50.0552 293.716 49.69C293.139 49.3253 292.468 49.1362 291.785 49.146C291.302 49.1381 290.821 49.226 290.372 49.4044C289.922 49.5829 289.512 49.8484 289.166 50.1858C288.435 50.8744 288.077 52.045 288.077 53.6702" fill="white"/>
<path d="M300.416 58.9243L297.431 51.0947H298.81L300.492 55.7842C300.671 56.2938 300.837 56.8171 300.995 57.3611C301.113 56.948 301.278 56.4522 301.485 55.8737L303.229 51.0947H304.608L301.637 58.9243H300.416Z" fill="white"/>
<path d="M310.778 56.4039L312.156 56.5691C311.984 57.3106 311.56 57.9698 310.957 58.4353C310.307 58.9058 309.519 59.1479 308.716 59.1239C308.208 59.1544 307.698 59.0755 307.222 58.8925C306.747 58.7096 306.316 58.4269 305.959 58.0634C305.246 57.2445 304.885 56.1784 304.952 55.0955C304.882 53.9806 305.248 52.8819 305.973 52.0311C306.309 51.6718 306.719 51.3888 307.175 51.2011C307.63 51.0134 308.121 50.9255 308.613 50.9431C309.092 50.9257 309.57 51.012 310.012 51.1962C310.455 51.3805 310.852 51.6583 311.177 52.0105C311.886 52.8475 312.244 53.9255 312.177 55.0198C312.177 55.0955 312.177 55.2126 312.177 55.3709H306.331C306.327 56.0964 306.587 56.7986 307.062 57.3473C307.271 57.5709 307.526 57.7479 307.809 57.8666C308.091 57.9852 308.396 58.0429 308.703 58.0359C309.15 58.0489 309.589 57.9133 309.95 57.6503C310.336 57.3331 310.619 56.909 310.764 56.4314M306.407 54.2898H310.778C310.767 53.7552 310.594 53.2365 310.281 52.8024C310.083 52.5581 309.831 52.3623 309.546 52.2298C309.26 52.0974 308.948 52.0318 308.634 52.038C308.349 52.031 308.066 52.0817 307.802 52.187C307.538 52.2924 307.298 52.4502 307.096 52.6509C306.663 53.0875 306.416 53.675 306.407 54.2898Z" fill="white"/>
<path d="M313.425 58.9246V51.095H314.624V52.2863C314.823 51.8634 315.11 51.4877 315.465 51.1845C315.718 51.0139 316.015 50.9227 316.32 50.9229C316.811 50.9296 317.29 51.0778 317.699 51.3498L317.237 52.5824C316.946 52.399 316.609 52.2989 316.265 52.2932C315.983 52.2878 315.707 52.3803 315.486 52.5549C315.246 52.7354 315.072 52.9893 314.99 53.2779C314.839 53.7805 314.765 54.3027 314.769 54.8273V58.9246H313.425Z" fill="white"/>
<path d="M317.561 56.59L318.878 56.3834C318.92 56.8487 319.14 57.28 319.491 57.5885C319.898 57.891 320.398 58.0398 320.904 58.0085C321.394 58.052 321.882 57.9202 322.283 57.6367C322.419 57.5347 322.53 57.4027 322.606 57.251C322.683 57.0993 322.723 56.932 322.724 56.7621C322.724 56.624 322.688 56.4883 322.621 56.3678C322.553 56.2474 322.456 56.1461 322.338 56.0735C321.9 55.8635 321.437 55.7108 320.96 55.619C320.267 55.468 319.588 55.256 318.933 54.9855C318.58 54.8283 318.282 54.5693 318.078 54.2418C317.885 53.9245 317.785 53.5595 317.789 53.1882C317.786 52.8503 317.866 52.5169 318.023 52.2173C318.192 51.921 318.428 51.6685 318.712 51.4804C318.97 51.3039 319.257 51.1735 319.56 51.0948C319.931 50.9845 320.317 50.931 320.705 50.9364C321.256 50.9274 321.804 51.016 322.325 51.1981C322.73 51.3353 323.086 51.5863 323.352 51.9212C323.597 52.2813 323.753 52.6943 323.807 53.1262L322.511 53.3053C322.471 52.936 322.288 52.5971 322.001 52.3619C321.651 52.1156 321.228 51.9965 320.801 52.0244C320.343 51.9859 319.885 52.0919 319.491 52.3274C319.378 52.4044 319.284 52.5066 319.217 52.6262C319.15 52.7457 319.112 52.8792 319.105 53.0161C319.105 53.1832 319.161 53.3455 319.264 53.4774C319.4 53.6387 319.576 53.762 319.774 53.8355C319.905 53.8837 320.298 53.9939 320.946 54.1729C321.615 54.3349 322.274 54.5396 322.917 54.7858C323.267 54.9283 323.568 55.1671 323.786 55.4744C324.008 55.8109 324.118 56.2082 324.103 56.6106C324.105 57.0557 323.97 57.4906 323.717 57.857C323.444 58.2645 323.055 58.581 322.6 58.766C322.077 58.9879 321.514 59.0982 320.946 59.0896C320.122 59.1441 319.304 58.921 318.623 58.4561C318.058 57.9786 317.692 57.3085 317.595 56.5762" fill="white"/>
<path d="M330.638 56.4039L332.017 56.5691C331.839 57.31 331.413 57.9682 330.811 58.4353C330.161 58.9067 329.373 59.149 328.57 59.1239C328.061 59.1544 327.552 59.0755 327.076 58.8925C326.601 58.7096 326.17 58.4269 325.813 58.0634C325.098 57.2456 324.734 56.1794 324.799 55.0955C324.733 53.981 325.098 52.8837 325.82 52.0311C326.156 51.6718 326.566 51.3888 327.022 51.2011C327.477 51.0134 327.968 50.9255 328.46 50.9431C328.94 50.9265 329.418 51.0132 329.862 51.1973C330.306 51.3815 330.704 51.6588 331.031 52.0105C331.738 52.8482 332.094 53.9263 332.024 55.0198C332.024 55.0955 332.024 55.2126 332.024 55.3709H326.178C326.181 56.0952 326.44 56.7952 326.909 57.3473C327.119 57.5702 327.374 57.7467 327.656 57.8654C327.939 57.984 328.243 58.0421 328.55 58.0359C328.997 58.05 329.436 57.9142 329.797 57.6503C330.185 57.3338 330.471 56.9097 330.618 56.4314M326.254 54.2898H330.632C330.615 53.7551 330.44 53.2373 330.128 52.8024C329.93 52.5581 329.679 52.3623 329.393 52.2298C329.107 52.0974 328.795 52.0318 328.481 52.038C328.196 52.0318 327.914 52.0828 327.65 52.1881C327.385 52.2934 327.145 52.4508 326.943 52.6509C326.513 53.0895 326.266 53.6757 326.254 54.2898Z" fill="white"/>
<path d="M338.415 57.9594C337.991 58.3296 337.508 58.6274 336.988 58.8409C336.52 59.0154 336.025 59.1041 335.526 59.1025C334.808 59.1496 334.099 58.9233 333.541 58.469C333.315 58.2673 333.136 58.0184 333.016 57.74C332.897 57.4615 332.841 57.1603 332.851 56.8577C332.847 56.4928 332.934 56.1328 333.106 55.811C333.274 55.5062 333.51 55.2444 333.796 55.0466C334.088 54.8488 334.412 54.7021 334.754 54.6128C335.142 54.5201 335.536 54.4534 335.933 54.4131C336.734 54.3364 337.525 54.1842 338.297 53.9586C338.297 53.7727 338.297 53.6556 338.297 53.6074C338.318 53.4009 338.295 53.1925 338.229 52.9956C338.164 52.7987 338.058 52.6176 337.918 52.4643C337.486 52.1369 336.949 51.9778 336.408 52.0167C335.926 51.9811 335.444 52.0967 335.03 52.3472C334.677 52.6451 334.434 53.0524 334.34 53.5041L333.044 53.3319C333.127 52.8341 333.326 52.3625 333.623 51.9547C333.934 51.5898 334.34 51.3181 334.795 51.1697C335.368 50.9761 335.97 50.8829 336.574 50.8942C337.128 50.8757 337.681 50.955 338.208 51.1284C338.562 51.2423 338.88 51.4465 339.131 51.7206C339.338 51.9839 339.478 52.2935 339.538 52.6227C339.597 53.0284 339.62 53.4386 339.607 53.8484V55.6113C339.587 56.3949 339.615 57.1791 339.69 57.9594C339.753 58.2874 339.867 58.6034 340.028 58.896H338.649C338.504 58.5932 338.415 58.2665 338.387 57.9319M338.27 54.9709C337.569 55.217 336.843 55.3834 336.105 55.4667C335.71 55.5129 335.322 55.6029 334.947 55.7352C334.734 55.8223 334.551 55.9709 334.423 56.1621C334.3 56.3503 334.235 56.5708 334.237 56.7957C334.234 56.9631 334.268 57.1291 334.337 57.2816C334.406 57.4342 334.509 57.5693 334.637 57.6771C334.972 57.9387 335.392 58.0663 335.816 58.0352C336.297 58.0471 336.773 57.9306 337.194 57.6978C337.575 57.4916 337.881 57.1712 338.07 56.7819C338.235 56.3591 338.308 55.906 338.284 55.4529L338.27 54.9709Z" fill="white"/>
<path d="M340.793 56.5892L342.103 56.3826C342.148 56.8488 342.37 57.28 342.723 57.5877C343.12 57.883 343.608 58.0315 344.102 58.0078C344.591 58.0513 345.08 57.9194 345.481 57.6359C345.616 57.5329 345.725 57.4007 345.802 57.2492C345.878 57.0978 345.919 56.931 345.922 56.7614C345.922 56.6223 345.886 56.4857 345.817 56.3649C345.748 56.2441 345.649 56.1434 345.529 56.0727C345.091 55.8612 344.628 55.7084 344.15 55.6183C343.459 55.4675 342.783 55.2555 342.13 54.9847C341.885 54.8685 341.666 54.7038 341.486 54.5005C341.307 54.2972 341.17 54.0596 341.085 53.8021C341 53.5446 340.968 53.2725 340.991 53.0023C341.015 52.7321 341.092 52.4695 341.22 52.2303C341.387 51.9324 341.623 51.6795 341.91 51.4934C342.165 51.3155 342.45 51.1849 342.751 51.1078C343.122 50.998 343.508 50.9446 343.895 50.9494C344.446 50.9398 344.995 51.0284 345.515 51.2111C345.923 51.3467 346.282 51.598 346.549 51.9342C346.794 52.2943 346.95 52.7073 347.004 53.1392L345.708 53.3183C345.664 52.9491 345.479 52.6112 345.191 52.3749C344.842 52.1286 344.418 52.0095 343.992 52.0374C343.536 51.9999 343.081 52.1059 342.689 52.3404C342.574 52.4162 342.478 52.518 342.41 52.6377C342.341 52.7574 342.302 52.8915 342.296 53.0291C342.292 53.1979 342.351 53.3621 342.461 53.4904C342.595 53.6549 342.771 53.7789 342.971 53.8485C343.102 53.8967 343.495 54.0069 344.143 54.1859C344.81 54.3487 345.467 54.5534 346.108 54.7988C346.459 54.9411 346.763 55.1799 346.984 55.4874C347.205 55.824 347.316 56.2212 347.301 56.6236C347.299 57.0682 347.165 57.5023 346.915 57.87C346.638 58.2744 346.25 58.5902 345.798 58.779C345.275 59.0003 344.711 59.1106 344.143 59.1027C343.318 59.157 342.497 58.934 341.813 58.4691C341.251 57.9909 340.887 57.3207 340.793 56.5892Z" fill="white"/>
<path d="M352.526 58.9238V48.1194H360.343V49.3933H353.953V52.7056H359.937V53.9726H353.953V57.6498H360.592V58.9238H352.526Z" fill="white"/>
<path d="M361.136 58.9243L363.997 54.8546L361.336 51.0947H362.998L364.197 52.9333C364.425 53.2776 364.604 53.5737 364.742 53.8079C364.962 53.4842 365.162 53.195 365.341 52.9471L366.665 51.0947H368.251L365.555 54.7513L368.471 58.883H366.851L365.245 56.4522L364.817 55.7635L362.749 58.8554L361.136 58.9243Z" fill="white"/>
<path d="M369.195 61.927V51.0951H370.408V52.1142C370.66 51.7485 370.99 51.4428 371.373 51.219C371.777 51.0095 372.228 50.9075 372.683 50.9229C373.313 50.912 373.93 51.0921 374.455 51.4394C374.977 51.7975 375.381 52.3035 375.613 52.8923C375.875 53.5492 376.007 54.251 375.999 54.9582C376.01 55.7008 375.864 56.4374 375.572 57.1204C375.312 57.727 374.875 58.2408 374.317 58.5941C373.801 58.9276 373.201 59.1068 372.587 59.1105C372.172 59.1161 371.762 59.0191 371.394 58.8282C371.06 58.6618 370.764 58.4272 370.526 58.1396V61.9545L369.195 61.927ZM370.402 55.0408C370.342 55.833 370.559 56.6212 371.015 57.2719C371.191 57.4974 371.415 57.6797 371.672 57.805C371.929 57.9303 372.211 57.9953 372.497 57.995C372.79 57.994 373.079 57.9265 373.341 57.7977C373.604 57.6689 373.834 57.482 374.014 57.2513C374.485 56.5735 374.707 55.7534 374.641 54.9307C374.702 54.1362 374.485 53.3453 374.028 52.6927C373.856 52.4627 373.634 52.2754 373.378 52.1452C373.122 52.015 372.839 51.9455 372.552 51.9421C372.258 51.9506 371.97 52.0271 371.71 52.1657C371.451 52.3043 371.227 52.5012 371.056 52.7408C370.562 53.4023 370.318 54.2169 370.367 55.0408" fill="white"/>
<path d="M382.334 57.9594C381.914 58.3308 381.434 58.6288 380.914 58.8409C380.447 59.0168 379.952 59.1055 379.453 59.1025C378.735 59.1496 378.025 58.9233 377.467 58.469C377.241 58.2673 377.062 58.0184 376.943 57.74C376.824 57.4615 376.768 57.1603 376.778 56.8577C376.775 56.4922 376.866 56.1321 377.04 55.811C377.207 55.5062 377.443 55.2444 377.729 55.0466C378.022 54.8488 378.346 54.7021 378.688 54.6128C379.076 54.5195 379.469 54.4527 379.866 54.4131C380.667 54.3364 381.459 54.1842 382.231 53.9586C382.231 53.7727 382.231 53.6556 382.231 53.6074C382.252 53.4014 382.23 53.1933 382.166 52.9964C382.102 52.7995 381.997 52.6182 381.859 52.4643C381.425 52.1359 380.885 51.9768 380.342 52.0167C379.859 51.9807 379.377 52.0962 378.963 52.3472C378.611 52.6451 378.368 53.0524 378.274 53.5041L376.978 53.3319C377.061 52.8341 377.259 52.3625 377.557 51.9547C377.868 51.5898 378.273 51.3181 378.729 51.1697C379.301 50.9755 379.903 50.8823 380.508 50.8942C381.062 50.8757 381.615 50.955 382.141 51.1284C382.484 51.223 382.793 51.4143 383.03 51.6792C383.267 51.9442 383.423 52.2717 383.479 52.6227C383.531 53.0291 383.552 53.4388 383.541 53.8484V55.6113C383.521 56.3949 383.549 57.1791 383.624 57.9594C383.686 58.2874 383.8 58.6034 383.961 58.896H382.583C382.437 58.5928 382.346 58.2665 382.314 57.9319M382.203 54.9709C381.503 55.2162 380.777 55.3825 380.039 55.4667C379.644 55.5129 379.256 55.6029 378.881 55.7352C378.666 55.82 378.483 55.9692 378.357 56.1621C378.233 56.3503 378.169 56.5708 378.171 56.7957C378.167 56.9631 378.201 57.1291 378.271 57.2816C378.34 57.4342 378.442 57.5693 378.57 57.6771C378.905 57.9387 379.325 58.0663 379.749 58.0352C380.231 58.0471 380.707 57.9306 381.128 57.6978C381.509 57.5029 381.819 57.1949 382.017 56.8163C382.182 56.3936 382.255 55.9405 382.231 55.4873L382.203 54.9709Z" fill="white"/>
<path d="M385.25 58.9247V51.0951H386.443V52.2107C386.71 51.7969 387.081 51.4603 387.519 51.2343C387.957 51.0084 388.446 50.901 388.939 50.923C389.386 50.9175 389.829 51.0043 390.242 51.1778C390.596 51.3208 390.904 51.5591 391.131 51.8664C391.337 52.1592 391.478 52.4926 391.544 52.8442C391.606 53.2705 391.631 53.7013 391.62 54.1319V58.9522H390.29V54.187C390.307 53.7769 390.254 53.3669 390.131 52.975C390.027 52.7068 389.835 52.4813 389.587 52.3346C389.304 52.1722 388.982 52.0912 388.656 52.1005C388.119 52.0896 387.597 52.2813 387.195 52.6376C386.953 52.9198 386.773 53.2493 386.666 53.605C386.559 53.9608 386.528 54.3349 386.574 54.7035V58.9798L385.25 58.9247Z" fill="white"/>
<path d="M392.744 56.5901L394.061 56.3835C394.1 56.8498 394.32 57.2824 394.674 57.5885C395.071 57.8838 395.559 58.0323 396.053 58.0086C396.542 58.0521 397.031 57.9203 397.432 57.6368C397.568 57.5348 397.678 57.4028 397.755 57.2511C397.832 57.0994 397.872 56.9321 397.873 56.7622C397.873 56.6232 397.837 56.4865 397.768 56.3658C397.699 56.245 397.6 56.1443 397.48 56.0736C397.043 55.8621 396.579 55.7093 396.101 55.6191C395.41 55.4684 394.735 55.2564 394.081 54.9856C393.735 54.8303 393.442 54.5775 393.238 54.2583C393.033 53.9391 392.926 53.5672 392.93 53.1883C392.93 52.8498 393.013 52.5164 393.171 52.2173C393.328 51.9233 393.553 51.6708 393.826 51.4805C394.082 51.3039 394.367 51.1734 394.667 51.0949C395.041 50.9851 395.429 50.9317 395.819 50.9365C396.368 50.9268 396.914 51.0154 397.432 51.1982C397.839 51.3338 398.199 51.5851 398.466 51.9212C398.711 52.2814 398.867 52.6944 398.921 53.1263L397.625 53.3053C397.583 52.9353 397.397 52.5964 397.108 52.3619C396.761 52.1156 396.34 51.9965 395.915 52.0245C395.458 51.986 394.999 52.092 394.605 52.3275C394.49 52.4033 394.395 52.5051 394.326 52.6248C394.258 52.7445 394.219 52.8786 394.212 53.0161C394.209 53.185 394.268 53.3492 394.378 53.4775C394.513 53.6404 394.689 53.7641 394.888 53.8356C395.019 53.8838 395.412 53.994 396.06 54.173C396.727 54.3358 397.383 54.5405 398.025 54.7859C398.376 54.9282 398.679 55.167 398.9 55.4745C399.122 55.811 399.233 56.2082 399.217 56.6107C399.216 57.0553 399.081 57.4894 398.831 57.8571C398.555 58.2615 398.167 58.5772 397.714 58.7661C397.191 58.9874 396.628 59.0976 396.06 59.0897C395.234 59.1441 394.414 58.9211 393.73 58.4562C393.17 57.9759 392.807 57.3068 392.71 56.5763" fill="white"/>
<path d="M400.458 48.1194H401.789V49.6481H400.458V48.1194ZM400.458 51.0942H401.789V58.9238H400.458V51.0942Z" fill="white"/>
<path d="M402.94 55.0127C402.89 54.4199 402.973 53.8235 403.181 53.2663C403.39 52.709 403.719 52.2049 404.146 51.79C404.834 51.207 405.713 50.898 406.614 50.9224C407.103 50.9051 407.591 50.9899 408.045 51.1713C408.5 51.3527 408.912 51.6267 409.254 51.9759C409.611 52.3718 409.885 52.8342 410.061 53.3366C410.238 53.8389 410.312 54.3711 410.282 54.9026C410.32 55.7193 410.164 56.5334 409.827 57.2783C409.531 57.8489 409.07 58.3169 408.503 58.6211C407.925 58.9402 407.275 59.1062 406.614 59.1031C406.121 59.1233 405.63 59.04 405.172 58.8585C404.713 58.677 404.298 58.4014 403.953 58.0495C403.229 57.2098 402.865 56.1187 402.94 55.0127ZM404.319 55.0127C404.257 55.8178 404.489 56.6179 404.973 57.2645C405.174 57.5059 405.428 57.6984 405.715 57.8273C406.001 57.9561 406.314 58.018 406.628 58.0082C406.94 58.0151 407.25 57.9511 407.535 57.8211C407.819 57.6911 408.07 57.4985 408.269 57.2576C408.769 56.602 409.014 55.7871 408.958 54.9645C409.007 54.1725 408.761 53.3903 408.269 52.7678C408.064 52.5327 407.81 52.3442 407.526 52.215C407.242 52.0858 406.933 52.019 406.621 52.019C406.309 52.019 406 52.0858 405.716 52.215C405.432 52.3442 405.179 52.5327 404.973 52.7678C404.487 53.4133 404.254 54.2143 404.319 55.0196" fill="white"/>
<path d="M411.46 58.9236V51.0941H412.653V52.2096C412.919 51.7954 413.29 51.4583 413.728 51.2323C414.166 51.0063 414.656 50.8993 415.148 50.9219C415.594 50.9159 416.035 51.0026 416.445 51.1767C416.801 51.3186 417.112 51.5571 417.341 51.8653C417.544 52.1597 417.685 52.4925 417.754 52.8432C417.813 53.2698 417.836 53.7005 417.823 54.1309V58.9512H416.486V54.186C416.505 53.7763 416.453 53.3664 416.334 52.974C416.229 52.7038 416.034 52.4777 415.783 52.3336C415.502 52.1717 415.183 52.0907 414.859 52.0994C414.322 52.0885 413.8 52.2803 413.397 52.6366C413.154 52.9178 412.973 53.2472 412.866 53.6032C412.759 53.9593 412.729 54.3338 412.777 54.7024V58.9787L411.46 58.9236Z" fill="white"/>
<path d="M114.789 58.9236V51.0941H115.988V52.2096C116.255 51.7954 116.626 51.4583 117.064 51.2323C117.502 51.0063 117.992 50.8993 118.484 50.9219C118.929 50.9159 119.37 51.0026 119.78 51.1767C120.137 51.3151 120.446 51.5544 120.669 51.8653C120.878 52.1566 121.019 52.4906 121.083 52.8432C121.145 53.2695 121.17 53.7003 121.159 54.1309V58.9512H119.828V54.186C119.847 53.7763 119.796 53.3664 119.677 52.974C119.569 52.7052 119.375 52.4799 119.125 52.3336C118.845 52.1717 118.525 52.0907 118.201 52.0994C117.662 52.0901 117.139 52.2816 116.733 52.6366C116.492 52.9193 116.314 53.249 116.208 53.6048C116.102 53.9605 116.072 54.3344 116.119 54.7024V58.9787L114.789 58.9236Z" fill="white"/>
</g>
<defs>
<filter id="filter0_d_406_4771" x="0" y="0" width="422.968" height="72.0002" filterUnits="userSpaceOnUse" color-interpolation-filters="sRGB">
<feFlood flood-opacity="0" result="BackgroundImageFix"/>
<feColorMatrix in="SourceAlpha" type="matrix" values="0 0 0 0 0 0 0 0 0 0 0 0 0 0 0 0 0 0 127 0" result="hardAlpha"/>
<feOffset dy="4"/>
<feGaussianBlur stdDeviation="2"/>
<feComposite in2="hardAlpha" operator="out"/>
<feColorMatrix type="matrix" values="0 0 0 0 0 0 0 0 0 0 0 0 0 0 0 0 0 0 0.5 0"/>
<feBlend mode="normal" in2="BackgroundImageFix" result="effect1_dropShadow_406_4771"/>
<feBlend mode="normal" in="SourceGraphic" in2="effect1_dropShadow_406_4771" result="shape"/>
</filter>
<linearGradient id="paint0_linear_406_4771" x1="44.5293" y1="7.07308" x2="50.4139" y2="-2.74685" gradientUnits="userSpaceOnUse">
<stop stop-color="#EDAA4E"/>
<stop offset="0.26" stop-color="#E08D4A"/>
<stop offset="0.53" stop-color="#D57546"/>
<stop offset="0.78" stop-color="#CE6744"/>
<stop offset="1" stop-color="#CC6243"/>
</linearGradient>
<linearGradient id="paint1_linear_406_4771" x1="13.7102" y1="25.7273" x2="36.5215" y2="18.4876" gradientUnits="userSpaceOnUse">
<stop stop-color="#8ACFF2"/>
<stop offset="1" stop-color="#0088C8"/>
</linearGradient>
<linearGradient id="paint2_linear_406_4771" x1="16.2906" y1="32.5197" x2="38.2413" y2="25.5531" gradientUnits="userSpaceOnUse">
<stop stop-color="#8ACFF2"/>
<stop offset="1" stop-color="#0088C8"/>
</linearGradient>
<linearGradient id="paint3_linear_406_4771" x1="37.1469" y1="51.5647" x2="16.7697" y2="51.0127" gradientUnits="userSpaceOnUse">
<stop stop-color="#EDAA4E"/>
<stop offset="0.26" stop-color="#E08D4A"/>
<stop offset="0.53" stop-color="#D57546"/>
<stop offset="0.78" stop-color="#CE6744"/>
<stop offset="1" stop-color="#CC6243"/>
</linearGradient>
<linearGradient id="paint4_linear_406_4771" x1="48.1812" y1="36.1596" x2="48.1812" y2="0.564986" gradientUnits="userSpaceOnUse">
<stop stop-color="#EDAA4E"/>
<stop offset="0.26" stop-color="#E08D4A"/>
<stop offset="0.53" stop-color="#D57546"/>
<stop offset="0.78" stop-color="#CE6744"/>
<stop offset="1" stop-color="#CC6243"/>
</linearGradient>
<linearGradient id="paint5_linear_406_4771" x1="9.06413" y1="42.413" x2="9.06413" y2="76.6097" gradientUnits="userSpaceOnUse">
<stop stop-color="#8ACFF2"/>
<stop offset="1" stop-color="#0088C8"/>
</linearGradient>
</defs>
</svg>
